<svg width="441" height="508" viewBox="0 0 441 508" fill="none" xmlns="http://www.w3.org/2000/svg">
<path d="M276.979 356.861C276.979 338.677 280.452 322.678 287.398 308.867C294.568 295.056 304.65 284.237 317.645 276.41C330.865 268.584 346.549 264.671 364.697 264.671C378.812 264.671 391.472 267.318 402.674 272.612C414.101 277.907 423.063 285.043 429.561 294.02C436.059 302.767 439.307 312.435 439.307 323.024C439.307 334.073 436.171 341.899 429.897 346.503C423.623 351.107 414.325 353.409 402.002 353.409H331.425C331.425 359.394 333.665 364.343 338.147 368.256C342.852 372.169 350.694 374.126 361.672 374.126C367.274 374.126 372.427 373.55 377.132 372.399C382.061 371.248 386.99 370.212 391.92 369.292C397.073 368.141 402.786 367.565 409.06 367.565C418.022 367.565 425.416 370.903 431.241 377.578C437.067 384.024 439.979 393.001 439.979 404.511C439.979 418.092 433.146 428.68 419.478 436.277C406.035 443.873 388.335 447.671 366.377 447.671C350.918 447.671 336.354 444.563 322.687 438.348C309.243 432.133 298.265 422.35 289.751 408.999C281.237 395.418 276.979 378.039 276.979 356.861ZM385.87 342.014C389.231 342.014 390.351 340.403 389.231 337.18C388.335 333.958 385.646 330.62 381.165 327.167C376.684 323.714 370.186 321.988 361.672 321.988C351.814 321.988 344.42 324.175 339.491 328.548C334.786 332.922 332.433 337.411 332.433 342.014H385.87Z" fill="white"/>
<path d="M34.3175 507.647C22.9036 507.647 14.453 504.202 8.96553 497.311C3.47809 490.42 0.734375 481.196 0.734375 469.637V314.263C0.734375 297.37 5.23407 284.922 14.2335 276.92C23.4523 268.918 34.4272 264.917 47.1581 264.917C59.2304 264.917 69.437 268.918 77.7779 276.92C86.3383 284.922 92.594 297.592 96.545 314.93L122.226 427.96H130.787L156.468 314.93C160.419 297.592 166.674 284.922 175.235 276.92C184.015 268.918 194.441 264.917 206.513 264.917C219.244 264.917 230.109 268.918 239.108 276.92C248.327 284.922 252.937 297.37 252.937 314.263V469.637C252.937 481.196 250.083 490.42 244.376 497.311C238.889 504.202 230.438 507.647 219.024 507.647C208.05 507.647 199.599 504.202 193.673 497.311C187.746 490.42 184.783 481.196 184.783 469.637V379.947C184.783 377.724 184.454 375.724 183.795 373.945C183.356 371.945 181.929 370.945 179.515 370.945C177.539 370.945 176.113 371.945 175.235 373.945C174.357 375.724 173.698 377.724 173.259 379.947L160.748 463.969C159.211 473.082 157.346 480.973 155.151 487.642C153.175 494.088 149.993 499.089 145.603 502.646C141.213 505.98 134.847 507.647 126.506 507.647C118.385 507.647 112.02 505.98 107.41 502.646C103.02 499.089 99.7277 494.088 97.5327 487.642C95.5572 480.973 93.911 473.082 92.594 463.969L79.7534 379.947C79.5339 377.724 78.9852 375.724 78.1072 373.945C77.2292 371.945 75.6927 370.945 73.4978 370.945C71.3028 370.945 69.876 371.945 69.2175 373.945C68.5591 375.724 68.2298 377.724 68.2298 379.947V469.637C68.2298 481.196 65.2666 490.42 59.3402 497.311C53.6332 504.202 45.2923 507.647 34.3175 507.647Z" fill="white"/>
<path d="M269.891 240.85C258.933 240.85 250.605 237.453 244.907 230.659C239.209 223.865 236.36 214.77 236.36 203.374V49.1979C236.36 37.8018 238.442 28.5972 242.606 21.5842C246.989 14.3521 252.578 9.09236 259.372 5.80503C266.385 2.51769 273.946 0.874023 282.054 0.874023C294.108 0.874023 304.299 4.05178 312.627 10.4073C320.955 16.7628 327.42 27.9398 332.022 43.9381L367.525 165.241H372.785V39.0072C372.785 27.3919 375.743 18.2969 381.661 11.7222C387.578 4.9284 396.015 1.53148 406.973 1.53148C418.369 1.53148 426.807 4.9284 432.286 11.7222C437.984 18.2969 440.833 27.3919 440.833 39.0072V187.595C440.833 206.004 436.778 219.592 428.67 228.358C420.561 237.124 409.165 241.507 394.481 241.507C379.579 241.507 367.963 237.562 359.636 229.673C351.308 221.783 344.952 210.168 340.569 194.827L317.229 114.945C316.791 112.753 315.914 110.781 314.599 109.027C313.503 107.055 311.969 106.069 309.997 106.069C307.586 106.069 305.942 107.055 305.066 109.027C304.189 110.781 303.751 112.753 303.751 114.945V203.374C303.751 214.77 300.902 223.865 295.204 230.659C289.506 237.453 281.068 240.85 269.891 240.85Z" fill="white"/>
<path d="M8.98145 156.714C8.98145 145.666 17.9382 136.709 28.9869 136.709H64.9968V176.72H28.9869C17.9382 176.72 8.98145 167.763 8.98145 156.714V156.714Z" fill="white"/>
<path d="M147.322 90.5745C153.599 76.4036 170.603 69.7458 182.216 80.0099C190.605 87.4252 197.622 96.3708 202.848 106.453C212.418 124.917 215.409 146.091 211.33 166.483C207.25 186.875 196.342 205.268 180.405 218.629C164.468 231.99 144.454 239.521 123.663 239.979C102.872 240.438 82.5447 233.797 66.0342 221.152C49.5237 208.507 37.8155 190.613 32.8404 170.421C27.8652 150.228 29.9201 128.943 38.6663 110.075C43.4423 99.7721 50.0579 90.5258 58.1125 82.7477C69.2615 71.9814 86.5424 77.8829 93.4382 91.7632L95.3024 95.5155C101.169 107.323 95.1326 121.718 89.5876 133.68V133.68C86.2086 140.969 85.4147 149.192 87.3368 156.994C89.2589 164.795 93.7822 171.708 100.161 176.593C106.539 181.478 114.393 184.044 122.425 183.867C130.457 183.689 138.19 180.78 144.347 175.618C150.504 170.457 154.718 163.351 156.294 155.472C157.87 147.594 156.714 139.414 153.017 132.281V132.281C146.95 120.575 140.285 106.46 145.625 94.4053L147.322 90.5745Z" fill="white"/>
<path d="M125.057 136.708C113.336 122.339 110.396 105.555 115.244 87.8798C118.34 76.5628 123.967 66.0723 128.503 55.2215C132.047 46.7655 136.174 38.5215 139.095 29.8112C142.346 20.0624 142.249 10.2501 134.364 0.670898C146.98 2.59945 157.435 6.01152 164.484 16.4596C170.811 25.8693 170.091 36.4658 165.009 45.8118C159.733 55.5182 152.84 64.1861 146.591 73.2567C142.015 79.9113 136.895 86.1844 132.786 93.1568C124.96 106.424 121.241 120.792 125.076 136.708H125.057Z" fill="white"/>
</svg>
