<svg width="100" height="116" viewBox="0 0 100 116" fill="none" xmlns="http://www.w3.org/2000/svg">
<g id="Frame 34">
<path id="Vector" d="M61.3828 86.5282C61.3828 82.4659 62.1916 78.892 63.8092 75.8067C65.4789 72.7213 67.827 70.3045 70.8534 68.5561C73.932 66.8078 77.5846 65.9336 81.8111 65.9336C85.0984 65.9336 88.0466 66.5249 90.6556 67.7077C93.3167 68.8904 95.4039 70.4845 96.9171 72.4899C98.4303 74.444 99.187 76.6037 99.187 78.9691C99.187 81.4374 98.4564 83.1858 96.9954 84.2142C95.5344 85.2427 93.3689 85.7569 90.499 85.7569H74.0625C74.0625 87.0939 74.5843 88.1994 75.6278 89.0736C76.7236 89.9478 78.5499 90.3849 81.1067 90.3849C82.4112 90.3849 83.6113 90.2563 84.7071 89.9992C85.8551 89.7421 87.003 89.5107 88.151 89.305C89.3511 89.0479 90.6817 88.9194 92.1427 88.9194C94.2299 88.9194 95.9518 89.665 97.3085 91.1562C98.6651 92.596 99.3435 94.6015 99.3435 97.1726C99.3435 100.207 97.752 102.572 94.569 104.269C91.4383 105.966 87.3161 106.814 82.2025 106.814C78.6021 106.814 75.2104 106.12 72.0275 104.732C68.8967 103.343 66.3399 101.158 64.3571 98.1754C62.3742 95.1415 61.3828 91.2591 61.3828 86.5282ZM86.7421 83.2115C87.5248 83.2115 87.7857 82.8515 87.5248 82.1316C87.3161 81.4117 86.6899 80.6661 85.6463 79.8947C84.6027 79.1234 83.0895 78.7377 81.1067 78.7377C78.8108 78.7377 77.0889 79.2263 75.9409 80.2033C74.8452 81.1803 74.2973 82.183 74.2973 83.2115H86.7421Z" fill="#FEFEFE"/>
<path id="Vector_2" d="M9.02523 115.297C6.47428 115.297 4.58559 114.536 3.35916 113.016C2.13274 111.495 1.51953 109.459 1.51953 106.908V72.6172C1.51953 68.8889 2.5252 66.1417 4.53653 64.3756C6.59692 62.6096 9.04976 61.7266 11.8951 61.7266C14.5932 61.7266 16.8743 62.6096 18.7385 64.3756C20.6517 66.1417 22.0498 68.9379 22.9329 72.7644L28.6725 97.7098H30.5857L36.3254 72.7644C37.2084 68.9379 38.6065 66.1417 40.5198 64.3756C42.482 62.6096 44.8122 61.7266 47.5104 61.7266C50.3557 61.7266 52.784 62.6096 54.7953 64.3756C56.8557 66.1417 57.8859 68.8889 57.8859 72.6172V106.908C57.8859 109.459 57.2481 111.495 55.9727 113.016C54.7462 114.536 52.8576 115.297 50.3066 115.297C47.8538 115.297 45.9651 114.536 44.6405 113.016C43.316 111.495 42.6537 109.459 42.6537 106.908V87.1135C42.6537 86.6229 42.5801 86.1814 42.433 85.7889C42.3349 85.3474 42.016 85.1267 41.4764 85.1267C41.0349 85.1267 40.716 85.3474 40.5198 85.7889C40.3235 86.1814 40.1764 86.6229 40.0782 87.1135L37.282 105.657C36.9386 107.668 36.5216 109.41 36.031 110.882C35.5895 112.304 34.8782 113.408 33.8971 114.193C32.9159 114.929 31.4933 115.297 29.6291 115.297C27.814 115.297 26.3914 114.929 25.3612 114.193C24.38 113.408 23.6442 112.304 23.1536 110.882C22.7121 109.41 22.3442 107.668 22.0498 105.657L19.18 87.1135C19.131 86.6229 19.0083 86.1814 18.8121 85.7889C18.6159 85.3474 18.2725 85.1267 17.7819 85.1267C17.2913 85.1267 16.9724 85.3474 16.8253 85.7889C16.6781 86.1814 16.6045 86.6229 16.6045 87.1135V106.908C16.6045 109.459 15.9423 111.495 14.6177 113.016C13.3422 114.536 11.4781 115.297 9.02523 115.297Z" fill="#FEFEFE"/>
<path id="Vector_3" d="M61.5877 55.1313C59.1349 55.1313 57.2707 54.3709 55.9952 52.8502C54.7198 51.3294 54.082 49.2936 54.082 46.7426V12.2311C54.082 9.68014 54.5481 7.61975 55.4802 6.04993C56.4613 4.43106 57.7122 3.25369 59.233 2.51784C60.8028 1.78199 62.4953 1.41406 64.3104 1.41406C67.0085 1.41406 69.2897 2.12539 71.1538 3.54804C73.018 4.97068 74.4652 7.47258 75.4954 11.0537L83.4426 38.2067H84.6199V9.94996C84.6199 7.34994 85.2822 5.31408 86.6067 3.84238C87.9313 2.32161 89.82 1.56123 92.2728 1.56123C94.8238 1.56123 96.7125 2.32161 97.9389 3.84238C99.2144 5.31408 99.8521 7.34994 99.8521 9.94996V43.2105C99.8521 47.3313 98.9446 50.3728 97.1294 52.3351C95.3143 54.2974 92.7634 55.2785 89.4766 55.2785C86.1407 55.2785 83.5407 54.3955 81.6765 52.6294C79.8124 50.8634 78.3897 48.2634 77.4086 44.8294L72.184 26.9482C72.0859 26.4576 71.8897 26.0161 71.5953 25.6236C71.3501 25.1821 71.0067 24.9614 70.5651 24.9614C70.0255 24.9614 69.6576 25.1821 69.4614 25.6236C69.2651 26.0161 69.167 26.4576 69.167 26.9482V46.7426C69.167 49.2936 68.5293 51.3294 67.2538 52.8502C65.9783 54.3709 64.0896 55.1313 61.5877 55.1313Z" fill="#FEFEFE"/>
<g id="Vector_4">
<path d="M2.9375 38.2694C2.9375 35.9795 5.10794 34.1231 7.78532 34.1231H15.4033V42.4157H7.78532C5.10795 42.4157 2.9375 40.5594 2.9375 38.2694Z" fill="#FEFEFE"/>
<path d="M35.2817 26.344C36.7285 23.5505 40.6476 22.238 43.3242 24.2614C45.2579 25.7232 46.8751 27.4866 48.0796 29.4742C50.2852 33.114 50.9747 37.288 50.0344 41.3079C49.0941 45.3279 46.58 48.9537 42.9069 51.5875C39.2337 54.2213 34.6208 55.7058 29.8288 55.7962C25.0367 55.8866 20.3517 54.5776 16.5464 52.0849C12.741 49.5922 10.0425 46.0647 8.89578 42.0841C7.74909 38.1036 8.22271 33.9076 10.2386 30.1882C11.3393 28.1571 12.8641 26.3344 14.7206 24.8011C17.2902 22.6787 21.2731 23.8421 22.8625 26.5783L23.2922 27.318C24.6442 29.6457 23.253 32.4833 21.975 34.8414C21.1962 36.2783 21.0132 37.8994 21.4562 39.4372C21.8993 40.9751 22.9418 42.3379 24.412 43.3009C25.8821 44.2639 27.6921 44.7697 29.5435 44.7347C31.3948 44.6998 33.177 44.1263 34.596 43.1087C36.0151 42.0912 36.9864 40.6904 37.3497 39.1373C37.7129 37.5843 37.4466 35.9717 36.5944 34.5655C35.1961 32.2579 33.6599 29.4756 34.8906 27.0992L35.2817 26.344Z" fill="#FEFEFE"/>
</g>
<path id="Vector_5" d="M29.3065 34.0483C26.7622 31.5804 26.124 28.6975 27.1764 25.6617C27.8484 23.7179 29.0698 21.916 30.0546 20.0523C30.8238 18.5999 31.7198 17.184 32.3537 15.6879C33.0595 14.0135 30.7445 11.267 31.3267 10.6828C31.9089 10.0987 36.335 11.6001 37.8649 13.3947C39.2385 15.0109 39.0821 16.8309 37.9791 18.4361C36.8337 20.1033 35.3376 21.5921 33.9809 23.15C32.9877 24.293 31.8762 25.3705 30.9844 26.568C29.2854 28.8467 32.0956 33.4642 29.3107 34.0483C26.5259 34.6325 29.3065 34.0483 29.3065 34.0483Z" fill="#FEFEFE"/>
</g>
</svg>
