<svg width="24" height="25" viewBox="0 0 24 25" fill="none" xmlns="http://www.w3.org/2000/svg">
<g id="mail">
<mask id="mask0_1558_1144" style="mask-type:alpha" maskUnits="userSpaceOnUse" x="0" y="0" width="24" height="25">
<rect id="Bounding box" y="0.503906" width="24" height="24" fill="#D9D9D9"/>
</mask>
<g mask="url(#mask0_1558_1144)">
<path id="mail_2" d="M4 20.5039C3.45 20.5039 2.97917 20.3081 2.5875 19.9164C2.19583 19.5247 2 19.0539 2 18.5039V6.50391C2 5.95391 2.19583 5.48307 2.5875 5.09141C2.97917 4.69974 3.45 4.50391 4 4.50391H20C20.55 4.50391 21.0208 4.69974 21.4125 5.09141C21.8042 5.48307 22 5.95391 22 6.50391V18.5039C22 19.0539 21.8042 19.5247 21.4125 19.9164C21.0208 20.3081 20.55 20.5039 20 20.5039H4ZM12 13.5039L20 8.50391V6.50391L12 11.5039L4 6.50391V8.50391L12 13.5039Z" fill="#FEFEFE"/>
</g>
</g>
</svg>
