<svg width="24" height="25" viewBox="0 0 24 25" fill="none" xmlns="http://www.w3.org/2000/svg">
<g id="call">
<mask id="mask0_1558_1139" style="mask-type:alpha" maskUnits="userSpaceOnUse" x="0" y="0" width="24" height="25">
<rect id="Bounding box" y="0.503906" width="24" height="24" fill="#D9D9D9"/>
</mask>
<g mask="url(#mask0_1558_1139)">
<path id="call_2" d="M19.95 21.5039C17.8667 21.5039 15.8083 21.0497 13.775 20.1414C11.7417 19.2331 9.89167 17.9456 8.225 16.2789C6.55833 14.6122 5.27083 12.7622 4.3625 10.7289C3.45417 8.69557 3 6.63724 3 4.55391C3 4.25391 3.1 4.00391 3.3 3.80391C3.5 3.60391 3.75 3.50391 4.05 3.50391H8.1C8.33333 3.50391 8.54167 3.58307 8.725 3.74141C8.90833 3.89974 9.01667 4.08724 9.05 4.30391L9.7 7.80391C9.73333 8.07057 9.725 8.29557 9.675 8.47891C9.625 8.66224 9.53333 8.82057 9.4 8.95391L6.975 11.4039C7.30833 12.0206 7.70417 12.6164 8.1625 13.1914C8.62083 13.7664 9.125 14.3206 9.675 14.8539C10.1917 15.3706 10.7333 15.8497 11.3 16.2914C11.8667 16.7331 12.4667 17.1372 13.1 17.5039L15.45 15.1539C15.6 15.0039 15.7958 14.8914 16.0375 14.8164C16.2792 14.7414 16.5167 14.7206 16.75 14.7539L20.2 15.4539C20.4333 15.5206 20.625 15.6414 20.775 15.8164C20.925 15.9914 21 16.1872 21 16.4039V20.4539C21 20.7539 20.9 21.0039 20.7 21.2039C20.5 21.4039 20.25 21.5039 19.95 21.5039Z" fill="#FEFEFE"/>
</g>
</g>
</svg>
