<svg width="24" height="25" viewBox="0 0 24 25" fill="none" xmlns="http://www.w3.org/2000/svg">
<g id="Frame" clip-path="url(#clip0_1558_1124)">
<path id="Vector" d="M7.03008 0.587923C5.75328 0.648123 4.88138 0.851923 4.11908 1.15132C3.33028 1.45882 2.66158 1.87132 1.99628 2.53902C1.33108 3.20672 0.921282 3.87582 0.616082 4.66602C0.320682 5.42982 0.120482 6.30252 0.0640816 7.58002C0.00768159 8.85752 -0.00481841 9.26822 0.00148159 12.527C0.00768159 15.7856 0.0220816 16.1941 0.0839816 17.4743C0.144982 18.7508 0.347982 19.6225 0.647482 20.385C0.955482 21.1739 1.36748 21.8423 2.03548 22.5078C2.70338 23.1733 3.37198 23.5821 4.16398 23.8878C4.92718 24.1828 5.80008 24.3839 7.07738 24.4398C8.35468 24.4958 8.76578 24.5088 12.0236 24.5025C15.2814 24.4963 15.6916 24.4818 16.9714 24.4211C18.2514 24.3604 19.1184 24.1559 19.8812 23.8578C20.6701 23.5492 21.339 23.1378 22.004 22.4697C22.669 21.8015 23.0785 21.1319 23.3835 20.3413C23.6792 19.5781 23.8801 18.7053 23.9355 17.4289C23.9915 16.148 24.0047 15.7391 23.9985 12.4809C23.9922 9.22262 23.9775 8.81412 23.9168 7.53442C23.8561 6.25472 23.6528 5.38572 23.3535 4.62272C23.0451 3.83382 22.6335 3.16592 21.9659 2.49992C21.2982 1.83392 20.628 1.42472 19.8378 1.12042C19.074 0.824923 18.2017 0.623623 16.9244 0.568423C15.6471 0.513223 15.236 0.498923 11.977 0.505323C8.71798 0.511523 8.30998 0.525523 7.03008 0.587923ZM7.17028 22.281C6.00028 22.2301 5.36498 22.0357 4.94158 21.873C4.38098 21.657 3.98158 21.3959 3.55968 20.978C3.13768 20.5602 2.87858 20.1594 2.65968 19.6C2.49528 19.1766 2.29728 18.542 2.24258 17.372C2.18308 16.1075 2.17058 15.7278 2.16358 12.524C2.15658 9.32032 2.16888 8.94102 2.22428 7.67602C2.27428 6.50702 2.46988 5.87102 2.63228 5.44782C2.84828 4.88652 3.10848 4.48782 3.52728 4.06622C3.94608 3.64452 4.34568 3.38482 4.90558 3.16592C5.32858 3.00082 5.96308 2.80452 7.13258 2.74882C8.39808 2.68882 8.77728 2.67682 11.9806 2.66982C15.1839 2.66282 15.5641 2.67482 16.8301 2.73062C17.9991 2.78142 18.6354 2.97512 19.0581 3.13862C19.6189 3.35462 20.0181 3.61402 20.4397 4.03362C20.8614 4.45302 21.1213 4.85122 21.3402 5.41232C21.5055 5.83402 21.7019 6.46832 21.7571 7.63862C21.8173 8.90412 21.831 9.28362 21.8367 12.4866C21.8425 15.6896 21.8312 16.07 21.7757 17.3346C21.7247 18.5046 21.5307 19.1401 21.3677 19.564C21.1517 20.1244 20.8914 20.524 20.4723 20.9454C20.0533 21.3669 19.6542 21.6265 19.094 21.8454C18.6716 22.0103 18.0363 22.2071 16.8678 22.2628C15.6022 22.3223 15.223 22.3348 12.0185 22.3418C8.81398 22.3488 8.43578 22.3358 7.17028 22.281ZM16.953 6.09032C16.9535 6.37515 17.0384 6.65344 17.197 6.89C17.3557 7.12655 17.5809 7.31075 17.8443 7.41928C18.1076 7.52781 18.3972 7.55581 18.6765 7.49974C18.9557 7.44366 19.2121 7.30603 19.4131 7.10424C19.6141 6.90246 19.7508 6.64559 19.8058 6.36613C19.8609 6.08666 19.8318 5.79716 19.7223 5.53422C19.6128 5.27129 19.4277 5.04674 19.1906 4.88898C18.9534 4.73122 18.6748 4.64733 18.39 4.64792C18.0082 4.64872 17.6423 4.80111 17.3728 5.0716C17.1034 5.34208 16.9523 5.70851 16.953 6.09032ZM5.83848 12.5159C5.84518 15.9191 8.60908 18.6716 12.0115 18.6652C15.4141 18.6587 18.1685 15.8951 18.1621 12.4919C18.1556 9.08872 15.3911 6.33542 11.9881 6.34212C8.58508 6.34882 5.83208 9.11312 5.83848 12.5159ZM7.99998 12.5116C7.99842 11.7205 8.23149 10.9467 8.66971 10.288C9.10793 9.62937 9.73163 9.11545 10.4619 8.81125C11.1922 8.50706 11.9963 8.42625 12.7726 8.57905C13.5488 8.73185 14.2623 9.11139 14.8228 9.66969C15.3833 10.228 15.7657 10.9399 15.9216 11.7156C16.0774 12.4912 15.9998 13.2956 15.6985 14.0271C15.3972 14.7586 14.8858 15.3843 14.2289 15.8252C13.572 16.266 12.7991 16.5021 12.008 16.5037C11.4827 16.5048 10.9623 16.4024 10.4766 16.2024C9.99082 16.0024 9.54925 15.7086 9.17706 15.3379C8.80487 14.9672 8.50935 14.5268 8.30739 14.0418C8.10542 13.5569 8.00097 13.0369 7.99998 12.5116Z" fill="#FEFEFE"/>
</g>
<defs>
<clipPath id="clip0_1558_1124">
<rect width="24" height="24" fill="white" transform="translate(0 0.503906)"/>
</clipPath>
</defs>
</svg>
