<svg width="70" height="81" viewBox="0 0 70 81" fill="none" xmlns="http://www.w3.org/2000/svg">
<path d="M42.4375 60.4324C42.4375 57.6187 42.9977 55.1433 44.1181 53.0063C45.2746 50.8693 46.9009 49.1954 48.9971 47.9844C51.1294 46.7734 53.6593 46.168 56.5867 46.168C58.8636 46.168 60.9056 46.5776 62.7126 47.3967C64.5558 48.2159 66.0015 49.32 67.0496 50.7091C68.0976 52.0625 68.6217 53.5584 68.6217 55.1968C68.6217 56.9063 68.1157 58.1173 67.1038 58.8296C66.0918 59.542 64.592 59.8981 62.6042 59.8981H51.2198C51.2198 60.8242 51.5812 61.5899 52.304 62.1954C53.063 62.8009 54.3279 63.1036 56.0988 63.1036C57.0023 63.1036 57.8336 63.0146 58.5925 62.8365C59.3876 62.6584 60.1828 62.4981 60.9779 62.3557C61.8091 62.1776 62.7307 62.0885 63.7426 62.0885C65.1883 62.0885 66.3809 62.605 67.3206 63.6379C68.2603 64.6351 68.7301 66.0242 68.7301 67.805C68.7301 69.9064 67.6278 71.5447 65.4232 72.7201C63.2547 73.8954 60.3996 74.4831 56.8578 74.4831C54.364 74.4831 52.0149 74.0023 49.8103 73.0406C47.6418 72.079 45.8709 70.5653 44.4975 68.4995C43.1242 66.3981 42.4375 63.7091 42.4375 60.4324ZM60.002 58.1351C60.5442 58.1351 60.7249 57.8858 60.5442 57.3872C60.3996 56.8885 59.9659 56.3721 59.2431 55.8378C58.5203 55.3036 57.4722 55.0365 56.0988 55.0365C54.5086 55.0365 53.316 55.3748 52.5209 56.0515C51.7619 56.7283 51.3824 57.4228 51.3824 58.1351H60.002Z" fill="#F22156"/>
<path d="M6.17522 80.358C4.40835 80.358 3.1002 79.8314 2.25074 78.778C1.40129 77.7247 0.976562 76.3146 0.976562 74.5478V50.7971C0.976562 48.2147 1.67311 46.3119 3.06622 45.0887C4.4933 43.8655 6.19221 43.2539 8.16294 43.2539C10.0317 43.2539 11.6117 43.8655 12.9029 45.0887C14.228 46.3119 15.1964 48.2487 15.808 50.899L19.7835 68.1769H21.1086L25.0841 50.899C25.6957 48.2487 26.664 46.3119 27.9892 45.0887C29.3483 43.8655 30.9623 43.2539 32.8311 43.2539C34.8018 43.2539 36.4837 43.8655 37.8768 45.0887C39.3039 46.3119 40.0175 48.2147 40.0175 50.7971V74.5478C40.0175 76.3146 39.5757 77.7247 38.6923 78.778C37.8428 79.8314 36.5347 80.358 34.7678 80.358C33.0689 80.358 31.7608 79.8314 30.8434 78.778C29.9259 77.7247 29.4672 76.3146 29.4672 74.5478V60.8376C29.4672 60.4978 29.4163 60.192 29.3143 59.9202C29.2464 59.6144 29.0255 59.4615 28.6518 59.4615C28.346 59.4615 28.1251 59.6144 27.9892 59.9202C27.8533 60.192 27.7513 60.4978 27.6834 60.8376L25.7466 73.6813C25.5088 75.0744 25.22 76.2807 24.8802 77.3C24.5744 78.2854 24.0817 79.0499 23.4021 79.5935C22.7226 80.1032 21.7372 80.358 20.446 80.358C19.1888 80.358 18.2035 80.1032 17.4899 79.5935C16.8104 79.0499 16.3007 78.2854 15.9609 77.3C15.6551 76.2807 15.4003 75.0744 15.1964 73.6813L13.2087 60.8376C13.1747 60.4978 13.0898 60.192 12.9539 59.9202C12.8179 59.6144 12.5801 59.4615 12.2403 59.4615C11.9005 59.4615 11.6797 59.6144 11.5777 59.9202C11.4758 60.192 11.4248 60.4978 11.4248 60.8376V74.5478C11.4248 76.3146 10.9661 77.7247 10.0487 78.778C9.1653 79.8314 7.87413 80.358 6.17522 80.358Z" fill="#F22156"/>
<path d="M42.5815 38.6865C40.8826 38.6865 39.5914 38.1599 38.708 37.1065C37.8245 36.0532 37.3828 34.6431 37.3828 32.8763V8.97265C37.3828 7.20578 37.7056 5.7787 38.3512 4.6914C39.0308 3.57012 39.8972 2.75465 40.9505 2.24498C42.0378 1.7353 43.2101 1.48047 44.4673 1.48047C46.3361 1.48047 47.916 1.97315 49.2072 2.95852C50.4984 3.94388 51.5007 5.67677 52.2143 8.15717L57.7187 26.9641H58.5342V7.39266C58.5342 5.59182 58.9929 4.18173 59.9103 3.16239C60.8277 2.10906 62.1359 1.5824 63.8348 1.5824C65.6017 1.5824 66.9098 2.10906 67.7593 3.16239C68.6427 4.18173 69.0844 5.59182 69.0844 7.39266V30.4298C69.0844 33.284 68.4558 35.3906 67.1986 36.7498C65.9414 38.1089 64.1746 38.7885 61.898 38.7885C59.5875 38.7885 57.7867 38.1769 56.4955 36.9536C55.2043 35.7304 54.219 33.9296 53.5394 31.5511L49.9207 19.1661C49.8528 18.8263 49.7169 18.5205 49.513 18.2487C49.3431 17.9429 49.1053 17.79 48.7995 17.79C48.4257 17.79 48.1709 17.9429 48.035 18.2487C47.899 18.5205 47.8311 18.8263 47.8311 19.1661V32.8763C47.8311 34.6431 47.3894 36.0532 46.5059 37.1065C45.6225 38.1599 44.3144 38.6865 42.5815 38.6865Z" fill="#F22156"/>
<path d="M1.96094 27.0062C1.96094 25.4201 3.46425 24.1344 5.31867 24.1344H10.5951V29.8781H5.31867C3.46425 29.8781 1.96094 28.5923 1.96094 27.0062Z" fill="#F22156"/>
<path d="M24.3635 18.7463C25.3655 16.8115 28.08 15.9024 29.9338 17.3039C31.2732 18.3163 32.3933 19.5378 33.2276 20.9144C34.7553 23.4354 35.2328 26.3264 34.5815 29.1108C33.9302 31.8951 32.189 34.4064 29.6448 36.2307C27.1007 38.0549 23.9057 39.0831 20.5866 39.1458C17.2675 39.2084 14.0225 38.3017 11.3868 36.5752C8.7511 34.8487 6.88203 32.4054 6.0878 29.6484C5.29358 26.8913 5.62162 23.9851 7.01785 21.4089C7.78028 20.0022 8.83638 18.7397 10.1222 17.6777C11.902 16.2077 14.6607 17.0135 15.7615 18.9086L16.0591 19.421C16.9956 21.0332 16.032 22.9986 15.1468 24.6319C14.6074 25.6271 14.4807 26.7499 14.7875 27.8151C15.0944 28.8802 15.8165 29.8241 16.8347 30.4911C17.853 31.1582 19.1067 31.5085 20.389 31.4843C21.6712 31.4601 22.9056 31.0628 23.8885 30.3581C24.8714 29.6533 25.5441 28.683 25.7957 27.6074C26.0474 26.5317 25.8629 25.4148 25.2727 24.4408C24.3041 22.8425 23.2401 20.9154 24.0926 19.2694L24.3635 18.7463Z" fill="#F22156"/>
<path d="M20.2254 24.0849C18.4631 22.3755 18.0211 20.3787 18.75 18.276C19.2154 16.9297 20.0614 15.6817 20.7435 14.3908C21.2763 13.3849 21.8969 12.4041 22.336 11.3679C22.8248 10.2082 21.2214 8.30584 21.6246 7.90125C22.0279 7.49666 25.0935 8.53659 26.1532 9.77955C27.1045 10.899 26.9962 12.1596 26.2322 13.2714C25.4389 14.4261 24.4026 15.4573 23.463 16.5364C22.775 17.328 22.0052 18.0743 21.3875 18.9038C20.2107 20.4821 22.1571 23.6803 20.2283 24.0849C18.2994 24.4894 20.2254 24.0849 20.2254 24.0849Z" fill="#2D2D2D"/>
</svg>
