<svg width="441" height="508" viewBox="0 0 441 508" fill="none" xmlns="http://www.w3.org/2000/svg">
<path d="M276.487 356.861C276.487 338.677 279.96 322.678 286.906 308.867C294.076 295.056 304.158 284.237 317.153 276.41C330.373 268.584 346.056 264.671 364.205 264.671C378.32 264.671 390.979 267.318 402.182 272.612C413.609 277.907 422.571 285.043 429.069 294.02C435.566 302.767 438.815 312.435 438.815 323.024C438.815 334.073 435.678 341.899 429.405 346.503C423.131 351.107 413.833 353.409 401.51 353.409H330.933C330.933 359.394 333.173 364.343 337.654 368.256C342.359 372.169 350.201 374.126 361.18 374.126C366.781 374.126 371.935 373.55 376.64 372.399C381.569 371.248 386.498 370.212 391.427 369.292C396.581 368.141 402.294 367.565 408.568 367.565C417.53 367.565 424.924 370.903 430.749 377.578C436.575 384.024 439.487 393.001 439.487 404.511C439.487 418.092 432.654 428.68 418.986 436.277C405.543 443.873 387.843 447.671 365.885 447.671C350.425 447.671 335.862 444.563 322.195 438.348C308.751 432.133 297.773 422.35 289.258 408.999C280.744 395.418 276.487 378.039 276.487 356.861ZM385.378 342.014C388.739 342.014 389.859 340.403 388.739 337.18C387.843 333.958 385.154 330.62 380.673 327.167C376.192 323.714 369.694 321.988 361.18 321.988C351.322 321.988 343.928 324.175 338.999 328.548C334.293 332.922 331.941 337.411 331.941 342.014H385.378Z" fill="#F10843"/>
<path d="M33.8253 507.647C22.4114 507.647 13.9608 504.202 8.47334 497.311C2.9859 490.42 0.242188 481.196 0.242188 469.637V314.263C0.242188 297.37 4.74188 284.922 13.7413 276.92C22.9602 268.918 33.935 264.917 46.6659 264.917C58.7382 264.917 68.9449 268.918 77.2858 276.92C85.8462 284.922 92.1018 297.592 96.0528 314.93L121.734 427.96H130.294L155.976 314.93C159.926 297.592 166.182 284.922 174.743 276.92C183.522 268.918 193.949 264.917 206.021 264.917C218.752 264.917 229.617 268.918 238.616 276.92C247.835 284.922 252.445 297.37 252.445 314.263V469.637C252.445 481.196 249.591 490.42 243.884 497.311C238.397 504.202 229.946 507.647 218.532 507.647C207.557 507.647 199.107 504.202 193.18 497.311C187.254 490.42 184.291 481.196 184.291 469.637V379.947C184.291 377.724 183.961 375.724 183.303 373.945C182.864 371.945 181.437 370.945 179.023 370.945C177.047 370.945 175.621 371.945 174.743 373.945C173.865 375.724 173.206 377.724 172.767 379.947L160.256 463.969C158.719 473.082 156.854 480.973 154.659 487.642C152.683 494.088 149.5 499.089 145.11 502.646C140.72 505.98 134.355 507.647 126.014 507.647C117.893 507.647 111.527 505.98 106.918 502.646C102.528 499.089 99.2355 494.088 97.0405 487.642C95.065 480.973 93.4188 473.082 92.1018 463.969L79.2612 379.947C79.0417 377.724 78.493 375.724 77.615 373.945C76.737 371.945 75.2005 370.945 73.0056 370.945C70.8106 370.945 69.3839 371.945 68.7254 373.945C68.0669 375.724 67.7376 377.724 67.7376 379.947V469.637C67.7376 481.196 64.7744 490.42 58.848 497.311C53.141 504.202 44.8001 507.647 33.8253 507.647Z" fill="#F10843"/>
<path d="M269.399 240.85C258.441 240.85 250.113 237.453 244.415 230.659C238.717 223.865 235.868 214.77 235.868 203.374V49.1979C235.868 37.8018 237.95 28.5972 242.114 21.5842C246.497 14.3521 252.086 9.09236 258.88 5.80503C265.893 2.51769 273.453 0.874023 281.562 0.874023C293.616 0.874023 303.806 4.05178 312.134 10.4073C320.462 16.7628 326.927 27.9398 331.53 43.9381L367.033 165.241H372.293V39.0072C372.293 27.3919 375.251 18.2969 381.169 11.7222C387.086 4.9284 395.523 1.53148 406.481 1.53148C417.877 1.53148 426.315 4.9284 431.793 11.7222C437.492 18.2969 440.341 27.3919 440.341 39.0072V187.595C440.341 206.004 436.286 219.592 428.177 228.358C420.069 237.124 408.673 241.507 393.989 241.507C379.087 241.507 367.471 237.562 359.143 229.673C350.815 221.783 344.46 210.168 340.077 194.827L316.737 114.945C316.298 112.753 315.422 110.781 314.107 109.027C313.011 107.055 311.477 106.069 309.505 106.069C307.094 106.069 305.45 107.055 304.574 109.027C303.697 110.781 303.259 112.753 303.259 114.945V203.374C303.259 214.77 300.41 223.865 294.712 230.659C289.013 237.453 280.576 240.85 269.399 240.85Z" fill="#F10843"/>
<path d="M8.48926 156.714C8.48926 145.666 17.446 136.709 28.4948 136.709H64.5047V176.72H28.4948C17.446 176.72 8.48926 167.763 8.48926 156.714V156.714Z" fill="#F10843"/>
<path d="M146.83 90.5745C153.107 76.4036 170.111 69.7458 181.723 80.0099C190.113 87.4252 197.13 96.3708 202.356 106.453C211.926 124.917 214.917 146.091 210.837 166.483C206.758 186.875 195.85 205.268 179.913 218.629C163.976 231.99 143.962 239.521 123.171 239.979C102.379 240.438 82.0525 233.797 65.542 221.152C49.0315 208.507 37.3233 190.613 32.3482 170.421C27.373 150.228 29.4279 128.943 38.1741 110.075C42.9501 99.7721 49.5657 90.5258 57.6203 82.7477C68.7693 71.9814 86.0502 77.8829 92.946 91.7632L94.8102 95.5155C100.676 107.323 94.6404 121.718 89.0954 133.68V133.68C85.7164 140.969 84.9225 149.192 86.8446 156.994C88.7667 164.795 93.29 171.708 99.6687 176.593C106.047 181.478 113.9 184.044 121.933 183.867C129.965 183.689 137.698 180.78 143.855 175.618C150.012 170.457 154.226 163.351 155.802 155.472C157.378 147.594 156.222 139.414 152.525 132.281V132.281C146.458 120.575 139.793 106.46 145.133 94.4053L146.83 90.5745Z" fill="#F10843"/>
<path d="M124.565 136.708C112.844 122.339 109.904 105.555 114.752 87.8798C117.848 76.5628 123.474 66.0723 128.011 55.2215C131.554 46.7655 135.682 38.5215 138.603 29.8112C141.854 20.0624 141.757 10.2501 133.871 0.670898C146.488 2.59945 156.943 6.01152 163.991 16.4596C170.319 25.8693 169.599 36.4658 164.517 45.8118C159.241 55.5182 152.348 64.1861 146.098 73.2567C141.523 79.9113 136.402 86.1844 132.294 93.1568C124.467 106.424 120.749 120.792 124.584 136.708H124.565Z" fill="#F10843"/>
</svg>
