<svg width="24" height="25" viewBox="0 0 24 25" fill="none" xmlns="http://www.w3.org/2000/svg">
<g id="location">
<mask id="mask0_1558_1149" style="mask-type:alpha" maskUnits="userSpaceOnUse" x="0" y="0" width="24" height="25">
<rect id="Bounding box" y="0.503906" width="24" height="24" fill="#D9D9D9"/>
</mask>
<g mask="url(#mask0_1558_1149)">
<path id="distance" d="M12 22.5039C10.2333 22.5039 8.79167 22.2247 7.675 21.6664C6.55833 21.1081 6 20.3872 6 19.5039C6 19.1039 6.12083 18.7331 6.3625 18.3914C6.60417 18.0497 6.94167 17.7539 7.375 17.5039L8.95 18.9789C8.8 19.0456 8.6375 19.1206 8.4625 19.2039C8.2875 19.2872 8.15 19.3872 8.05 19.5039C8.26667 19.7706 8.76667 20.0039 9.55 20.2039C10.3333 20.4039 11.15 20.5039 12 20.5039C12.85 20.5039 13.6708 20.4039 14.4625 20.2039C15.2542 20.0039 15.7583 19.7706 15.975 19.5039C15.8583 19.3706 15.7083 19.2622 15.525 19.1789C15.3417 19.0956 15.1667 19.0206 15 18.9539L16.55 17.4539C17.0167 17.7206 17.375 18.0247 17.625 18.3664C17.875 18.7081 18 19.0872 18 19.5039C18 20.3872 17.4417 21.1081 16.325 21.6664C15.2083 22.2247 13.7667 22.5039 12 22.5039ZM12 19.5039C9.65 17.7706 7.89583 16.0872 6.7375 14.4539C5.57917 12.8206 5 11.2206 5 9.65391C5 8.47057 5.2125 7.43307 5.6375 6.54141C6.0625 5.64974 6.60833 4.90391 7.275 4.30391C7.94167 3.70391 8.69167 3.25391 9.525 2.95391C10.3583 2.65391 11.1833 2.50391 12 2.50391C12.8167 2.50391 13.6417 2.65391 14.475 2.95391C15.3083 3.25391 16.0583 3.70391 16.725 4.30391C17.3917 4.90391 17.9375 5.64974 18.3625 6.54141C18.7875 7.43307 19 8.47057 19 9.65391C19 11.2206 18.4208 12.8206 17.2625 14.4539C16.1042 16.0872 14.35 17.7706 12 19.5039ZM12 11.5039C12.55 11.5039 13.0208 11.3081 13.4125 10.9164C13.8042 10.5247 14 10.0539 14 9.50391C14 8.95391 13.8042 8.48307 13.4125 8.09141C13.0208 7.69974 12.55 7.50391 12 7.50391C11.45 7.50391 10.9792 7.69974 10.5875 8.09141C10.1958 8.48307 10 8.95391 10 9.50391C10 10.0539 10.1958 10.5247 10.5875 10.9164C10.9792 11.3081 11.45 11.5039 12 11.5039Z" fill="#FEFEFE"/>
</g>
</g>
</svg>
