<svg width="24" height="25" viewBox="0 0 24 25" fill="none" xmlns="http://www.w3.org/2000/svg">
<g id="Frame" clip-path="url(#clip0_1558_1126)">
<path id="Vector" d="M12.0153 0.503906C5.39434 0.503906 0.0273438 5.87091 0.0273438 12.4909C0.0273438 17.5699 3.18534 21.9079 7.64534 23.6529C7.54034 22.7039 7.44634 21.2499 7.68634 20.2139C7.90534 19.2769 9.09234 14.2569 9.09234 14.2569C9.09234 14.2569 8.73334 13.5369 8.73334 12.4759C8.73334 10.8129 9.70034 9.56491 10.9013 9.56491C11.9253 9.56491 12.4193 10.3339 12.4193 11.2529C12.4193 12.2819 11.7663 13.8199 11.4273 15.2449C11.1423 16.4379 12.0273 17.4099 13.2023 17.4099C15.3303 17.4099 16.9703 15.1649 16.9703 11.9229C16.9703 9.06191 14.9073 7.05391 11.9623 7.05391C8.55234 7.05391 6.55334 9.61591 6.55334 12.2529C6.55334 13.2859 6.94734 14.3959 7.44234 14.9939C7.54134 15.1139 7.55434 15.2189 7.52734 15.3389C7.43734 15.7139 7.23434 16.5379 7.19334 16.7019C7.14034 16.9269 7.02134 16.9729 6.79234 16.8669C5.29734 16.1769 4.35934 13.9889 4.35934 12.2209C4.35934 8.44491 7.10734 4.96891 12.2793 4.96891C16.4373 4.96891 19.6713 7.93591 19.6713 11.8919C19.6713 16.0269 17.0643 19.3539 13.4383 19.3539C12.2243 19.3539 11.0843 18.7249 10.6803 17.9749L9.93134 20.8229C9.66234 21.8679 8.92734 23.1749 8.43334 23.9689C9.55634 24.3139 10.7393 24.5039 11.9833 24.5039C18.5903 24.5039 23.9683 19.1389 23.9683 12.5169C23.9683 5.89391 18.5903 0.529906 11.9833 0.529906L12.0153 0.503906Z" fill="#FEFEFE"/>
</g>
<defs>
<clipPath id="clip0_1558_1126">
<rect width="24" height="24" fill="white" transform="translate(0 0.503906)"/>
</clipPath>
</defs>
</svg>
